<mxfile host="app.diagrams.net" modified="2024-05-26T15:47:43.754Z" agent="Mozilla/5.0 (Windows NT 10.0; Win64; x64) AppleWebKit/537.36 (KHTML, like Gecko) Chrome/125.0.0.0 Safari/537.36 Edg/125.0.0.0" etag="ipchqM1ZXxsxSZrG-z32" version="24.4.8" type="device">
  <diagram name="Page-1" id="929967ad-93f9-6ef4-fab6-5d389245f69c">
    <mxGraphModel dx="1179" dy="726" grid="1" gridSize="10" guides="1" tooltips="1" connect="1" arrows="1" fold="1" page="1" pageScale="1.5" pageWidth="1169" pageHeight="826" background="none" math="0" shadow="0">
      <root>
        <mxCell id="0" style=";html=1;" />
        <mxCell id="1" style=";html=1;" parent="0" />
        <mxCell id="WWyOET2cAqLufUmVulRi-1" value="&lt;p style=&quot;margin:0px;margin-top:4px;text-align:center;&quot;&gt;&amp;lt;&amp;lt;block&amp;gt;&amp;gt;&lt;br/&gt;{encapsulated}&lt;br/&gt;&lt;b&gt;Block1&lt;/b&gt;&lt;/p&gt;&lt;hr/&gt;&lt;p style=&quot;font-size:10px;margin:0px;text-align:center;&quot;&gt;&lt;i&gt;constraints&lt;/i&gt;&lt;/p&gt;&lt;p style=&quot;margin:0px;margin-left:8px;text-align:left;&quot;&gt;{x &amp;gt; y}&lt;/p&gt;&lt;hr/&gt;&lt;p style=&quot;font-size:10px;margin:0px;text-align:center;&quot;&gt;&lt;i&gt;operations&lt;/i&gt;&lt;/p&gt;&lt;p style=&quot;margin:0px;margin-left:8px;text-align:left;&quot;&gt;operation1 (p1 : Type1) : Type2&lt;/p&gt;&lt;hr/&gt;&lt;p style=&quot;font-size:10px;margin:0px;text-align:center;&quot;&gt;&lt;i&gt;parts&lt;/i&gt;&lt;/p&gt;&lt;p style=&quot;margin:0px;margin-left:8px;text-align:left;&quot;&gt;property1 : Block2&lt;/p&gt;&lt;hr/&gt;&lt;p style=&quot;font-size:10px;margin:0px;text-align:center;&quot;&gt;&lt;i&gt;references&lt;/i&gt;&lt;/p&gt;&lt;p style=&quot;margin:0px;margin-left:8px;text-align:left;&quot;&gt;property2 : Block3 [0..*] {ordered}&lt;/p&gt;&lt;hr/&gt;&lt;p style=&quot;font-size:10px;margin:0px;text-align:center;&quot;&gt;&lt;i&gt;values&lt;/i&gt;&lt;/p&gt;&lt;p style=&quot;margin:0px;margin-left:8px;text-align:left;&quot;&gt;property3 : Integer = 99 {readOnly}&lt;br/&gt;property4 : Real = 10.0&lt;/p&gt;&lt;hr/&gt;&lt;p style=&quot;font-size:10px;margin:0px;text-align:center;&quot;&gt;&lt;i&gt;properties&lt;/i&gt;&lt;/p&gt;&lt;p style=&quot;margin:0px;margin-left:8px;text-align:left;&quot;&gt;property5 : Type1&lt;/p&gt;" style="shape=rect;html=1;overflow=fill;verticalAlign=top;align=left;whiteSpace=wrap;" vertex="1" parent="1">
          <mxGeometry x="650" y="395" width="270" height="325" as="geometry" />
        </mxCell>
      </root>
    </mxGraphModel>
  </diagram>
</mxfile>
